<svg width="17" height="16" viewBox="0 0 17 16" fill="none" xmlns="http://www.w3.org/2000/svg">
<g clip-path="url(#clip0_0_20214)">
<path d="M3.52379 6.94118C3.52379 7.33102 3.20399 7.64706 2.8095 7.64706C2.41501 7.64706 2.09521 7.33102 2.09521 6.94118V4.11765C2.09521 2.9481 3.0546 2 4.23807 2C5.42154 2 6.38093 2.9481 6.38093 4.11765C6.38093 4.5075 6.06113 4.82353 5.66664 4.82353C5.27215 4.82353 4.95236 4.5075 4.95236 4.11765C4.95236 3.7278 4.63256 3.41176 4.23807 3.41176C3.84358 3.41176 3.52379 3.7278 3.52379 4.11765V6.94118Z" fill="#858595"/>
<path d="M3.52379 13.9998H2.09521C2.09521 12.0506 3.6942 11.1763 5.66664 11.1763H9.95236C11.9248 11.1763 13.5238 12.0506 13.5238 13.9998H12.0952C12.0952 12.8303 11.1358 12.588 9.95236 12.588H5.66664C4.48318 12.588 3.52379 12.8303 3.52379 13.9998Z" fill="#858595"/>
<path fill-rule="evenodd" clip-rule="evenodd" d="M15.6666 6.23535H0.666626L1.02791 9.44864C1.22887 11.236 2.75767 12.5883 4.57749 12.5883H11.7558C13.5756 12.5883 15.1044 11.236 15.3053 9.44864L15.6666 6.23535ZM11.7738 10.4001C12.5913 9.79421 12.9881 9.00995 12.9881 8.00012C12.9881 7.70773 13.2279 7.4707 13.5238 7.4707C13.8196 7.4707 14.0595 7.70773 14.0595 8.00012C14.0595 9.34322 13.5039 10.4413 12.4166 11.2472C12.1799 11.4226 11.8441 11.3752 11.6666 11.1413C11.4891 10.9074 11.5371 10.5755 11.7738 10.4001Z" fill="#858595"/>
</g>
<defs>
<clipPath id="clip0_0_20214">
<rect width="16" height="16" fill="white" transform="translate(0.5)"/>
</clipPath>
</defs>
</svg>
