<svg width="17" height="16" viewBox="0 0 17 16" fill="none" xmlns="http://www.w3.org/2000/svg">
<path d="M12.3814 6.05007L5.20913 2.5967C4.75968 2.38086 4.18391 2.58873 3.97482 3.04002L2.64915 5.91211C2.44006 6.36524 2.63627 6.90974 3.08573 7.12618L10.258 10.5796C10.3837 10.6403 10.518 10.6703 10.6565 10.6703C11.014 10.6703 11.3414 10.4606 11.4917 10.1356L12.8173 7.26354C13.0271 6.81102 12.8308 6.26652 12.3814 6.05007Z" fill="#858595"/>
<path d="M6.35391 13.3332H1.44855C1.27932 13.3332 1.14197 13.1959 1.14197 13.0267C1.14197 12.8574 1.27932 12.7201 1.44855 12.7201H6.04733V10.574C6.04733 10.4047 6.18468 10.2674 6.35391 10.2674C6.52315 10.2674 6.6605 10.4047 6.6605 10.574V13.0267C6.6605 13.1959 6.52315 13.3332 6.35391 13.3332Z" fill="#858595"/>
<path d="M15.6888 7.84665L15.0757 7.54007C15.0033 7.50389 14.9193 7.49776 14.8414 7.52351L14.0284 7.79453L12.5997 7.22306C12.4433 7.1599 12.2643 7.23655 12.2018 7.39413C12.1423 7.54313 12.2097 7.70746 12.3508 7.77859L11.7014 9.07667C11.561 9.00677 11.3862 9.05153 11.3035 9.18949C11.2158 9.33482 11.2636 9.52306 11.4089 9.61013L12.8444 10.4716L13.1148 11.2841C13.1405 11.3607 13.1963 11.4245 13.2687 11.4613L13.8818 11.7679C13.9248 11.7893 13.9714 11.8004 14.0192 11.8004C14.0541 11.8004 14.0879 11.7949 14.1216 11.7826C14.2001 11.755 14.2638 11.6961 14.2982 11.6207L15.8311 8.24828C15.8986 8.09805 15.836 7.92085 15.6888 7.84665Z" fill="#858595"/>
<path fill-rule="evenodd" clip-rule="evenodd" d="M7.38643 8.62307C7.54646 8.56298 7.72183 8.64208 7.78253 8.80027C7.85182 8.98116 7.88677 9.16511 7.88677 9.34783C7.88677 10.1928 7.19941 10.8808 6.35385 10.8808C5.50829 10.8808 4.82092 10.1928 4.82092 9.34783C4.82092 8.67887 5.25259 8.09329 5.8952 7.89033C6.05769 7.84005 6.22876 7.92957 6.27965 8.09084C6.30357 8.1681 6.29437 8.24719 6.26187 8.31526L7.22087 8.77759C7.25398 8.70952 7.31039 8.6525 7.38643 8.62307ZM6.04731 9.348C6.04731 9.51724 6.18466 9.65459 6.35389 9.65459C6.52313 9.65459 6.66048 9.51724 6.66048 9.348C6.66048 9.17877 6.52313 9.04142 6.35389 9.04142C6.18466 9.04142 6.04731 9.17877 6.04731 9.348Z" fill="#858595"/>
</svg>
