<svg width="24" height="20" viewBox="0 0 24 20" fill="none" xmlns="http://www.w3.org/2000/svg">
<path fill-rule="evenodd" clip-rule="evenodd" d="M7.44536 9.6443C9.40127 9.6443 10.9908 8.00839 10.9908 5.99543C10.9908 3.98247 9.40127 2.34656 7.44536 2.34656C5.48945 2.34656 3.8999 3.98247 3.8999 5.99543C3.8999 8.00839 5.48945 9.6443 7.44536 9.6443Z" fill="#0A6ADA"/>
<path fill-rule="evenodd" clip-rule="evenodd" d="M11.8182 2.43258H19.2727C21.8845 2.43258 24 4.60974 24 7.29774V18.0526C24 18.7883 23.4036 19.3846 22.668 19.3846H22.032C21.2964 19.3846 20.7 18.7883 20.7 18.0526V14.5955H3.1V18.0526C3.1 18.7883 2.50364 19.3846 1.768 19.3846H1.332C0.596357 19.3846 0 18.7883 0 18.0526V1.18182C0 0.529118 0.529118 0 1.18182 0C1.83452 0 2.36364 0.529119 2.36364 1.18182V10.9466H11.8182V2.43258ZM10.6364 4.9412C10.6364 6.95416 9.04683 8.59007 7.09092 8.59007C5.13501 8.59007 3.54546 6.95416 3.54546 4.9412C3.54546 2.92824 5.13501 1.29233 7.09092 1.29233C9.04683 1.29233 10.6364 2.92824 10.6364 4.9412Z" fill="white"/>
</svg>
