<svg width="15" height="14" viewBox="0 0 15 14" fill="none" xmlns="http://www.w3.org/2000/svg">
<path fill-rule="evenodd" clip-rule="evenodd" d="M2.6875 4.95833C2.6875 2.22425 4.91175 0 7.64583 0C10.3799 0 12.6042 2.22425 12.6042 4.95833C12.6042 9.75158 8.03083 13.7603 7.83658 13.9288C7.78175 13.9761 7.71408 14 7.64583 14C7.57758 14 7.50992 13.9761 7.45508 13.9288C7.26025 13.7608 2.6875 9.75217 2.6875 4.95833ZM9.6875 6.36299C10.0264 6.24224 10.2708 5.9214 10.2708 5.54165H10.2714V4.66665C10.2714 4.5564 10.209 4.45549 10.1104 4.4059L9.635 4.16849L9.22258 2.93182C9.103 2.57424 8.76933 2.3339 8.3925 2.3339H6.89975C6.52233 2.3339 6.18925 2.57424 6.06967 2.93182L5.65725 4.16849L5.18183 4.4059C5.08325 4.45549 5.02083 4.5564 5.02083 4.66665V5.54165C5.02083 5.9214 5.26525 6.24224 5.60417 6.36299V6.70832C5.60417 6.86932 5.73483 6.99999 5.89583 6.99999C6.05683 6.99999 6.1875 6.86932 6.1875 6.70832V6.41665H9.10417V6.70832C9.10417 6.86932 9.23483 6.99999 9.39583 6.99999C9.55683 6.99999 9.6875 6.86932 9.6875 6.70832V6.36299Z" fill="#858595"/>
<path d="M6.47913 5.83333H5.89579C5.73479 5.83333 5.60413 5.70267 5.60413 5.54167C5.60413 5.38067 5.73479 5.25 5.89579 5.25H6.47913C6.64013 5.25 6.77079 5.38067 6.77079 5.54167C6.77079 5.70267 6.64013 5.83333 6.47913 5.83333Z" fill="#858595"/>
<path d="M9.39587 5.83333H8.81254C8.65154 5.83333 8.52087 5.70267 8.52087 5.54167C8.52087 5.38067 8.65154 5.25 8.81254 5.25H9.39587C9.55687 5.25 9.68754 5.38067 9.68754 5.54167C9.68754 5.70267 9.55687 5.83333 9.39587 5.83333Z" fill="#858595"/>
<path d="M10.2707 4.95836C10.2404 4.95836 10.2095 4.95369 10.1786 4.94319L9.30357 4.65153C9.15074 4.60078 9.06849 4.43569 9.11924 4.28286C9.16999 4.13003 9.33332 4.04719 9.4879 4.09853L10.3629 4.39019C10.5157 4.44094 10.598 4.60603 10.5472 4.75886C10.5064 4.88136 10.3927 4.95836 10.2707 4.95836Z" fill="white"/>
<path d="M4.72922 4.95853C4.59856 4.95853 4.47956 4.87045 4.44689 4.73745C4.40781 4.58112 4.50289 4.42303 4.65922 4.38395L5.82589 4.09228C5.98164 4.05262 6.14031 4.14828 6.17939 4.30462C6.21847 4.46095 6.12339 4.61903 5.96706 4.65812L4.80039 4.94978C4.77647 4.95562 4.75256 4.95853 4.72922 4.95853Z" fill="white"/>
<path d="M9.39579 4.66665H5.89579C5.73479 4.66665 5.60413 4.53598 5.60413 4.37498C5.60413 4.21398 5.73479 4.08331 5.89579 4.08331H9.39579C9.55679 4.08331 9.68746 4.21398 9.68746 4.37498C9.68746 4.53598 9.55679 4.66665 9.39579 4.66665Z" fill="#858595"/>
</svg>
