<svg width="16" height="17" viewBox="0 0 16 17" fill="none" xmlns="http://www.w3.org/2000/svg">
<path d="M1.62505 1.72021H14.4028C15.2849 1.72021 16 2.48639 16 3.43152V14.3839C16 15.329 15.2849 16.0952 14.4028 16.0952H1.62505C0.742932 16.0952 0.027832 15.329 0.027832 14.3839V3.43152C0.027832 2.48639 0.742932 1.72021 1.62505 1.72021Z" fill="white"/>
<path d="M12.7898 7.63202H2.40788C1.74629 7.63202 1.20996 8.20665 1.20996 8.9155V10.0278H4.87221C5.08402 10.0278 5.28715 10.118 5.43692 10.2785L6.23553 11.1341C6.5971 11.5215 7.0875 11.7392 7.59884 11.7392C8.11018 11.7392 8.60058 11.5215 8.96215 11.1341L9.76076 10.2785C9.91053 10.118 10.1137 10.0278 10.3255 10.0278H13.9877V8.9155C13.9877 8.20665 13.4514 7.63202 12.7898 7.63202Z" fill="#328CFF"/>
<path d="M2.82291 0.00891113C2.16132 0.00891113 1.625 0.583545 1.625 1.29239V5.14283H14.4028V1.29239C14.4028 0.583545 13.8664 0.00891113 13.2048 0.00891113H2.82291Z" fill="#328CFF"/>
<path d="M1.75489 3.43152C0.957201 3.43152 0.310547 4.00615 0.310547 4.715V7.19639H15.7169V4.715C15.7169 4.00615 15.0702 3.43152 14.2725 3.43152H1.75489Z" fill="white"/>
</svg>
