<svg width="16" height="16" viewBox="0 0 16 16" fill="none" xmlns="http://www.w3.org/2000/svg">
<path opacity="0.3" d="M11.3965 0.333313H13.6297C14.9389 0.333313 16.0003 1.38544 16.0003 2.68331V13.65C16.0003 14.9478 14.9389 16 13.6297 16H11.3965V0.333313Z" fill="#328CFF"/>
<path d="M1.1237 0.333313H10.6062C11.9154 0.333313 12.9768 1.38544 12.9768 2.68331V13.65C12.9768 14.9478 11.9154 16 10.6062 16H1.1237C0.687283 16 0.333496 15.6493 0.333496 15.2166V1.11665C0.333496 0.684023 0.687283 0.333313 1.1237 0.333313Z" fill="#328CFF"/>
<path fill-rule="evenodd" clip-rule="evenodd" d="M1.1237 0.333313H11.2589C12.5682 0.333313 13.6295 1.38544 13.6295 2.68331V13.65C13.6295 14.9478 12.5682 16 11.2589 16H1.1237C0.687283 16 0.333496 15.6493 0.333496 15.2166V1.11665C0.333496 0.684023 0.687283 0.333313 1.1237 0.333313ZM6.74448 7.38331C7.61732 7.38331 8.32489 6.68189 8.32489 5.81665C8.32489 4.9514 7.61732 4.24998 6.74448 4.24998C5.87165 4.24998 5.16407 4.9514 5.16407 5.81665C5.16407 6.68189 5.87165 7.38331 6.74448 7.38331ZM3.26397 12.0833C3.15388 12.0833 2.93562 11.8185 2.94488 11.6913C3.11504 9.35463 4.81559 8.16665 6.88831 8.16665C8.9902 8.16665 10.7171 9.28936 10.8457 11.6916C10.8509 11.7873 10.8457 12.0833 10.5159 12.0833H3.26397Z" fill="white"/>
</svg>
