<svg width="16" height="16" viewBox="0 0 16 16" fill="none" xmlns="http://www.w3.org/2000/svg">
<path d="M8.00033 0.666626C9.33076 0.666626 10.5578 0.994462 11.6813 1.65013C12.8049 2.3058 13.6945 3.19542 14.3502 4.31897C15.0058 5.44252 15.3337 6.66952 15.3337 7.99996C15.3337 9.3304 15.0058 10.5574 14.3502 11.6809C13.6945 12.8045 12.8049 13.6941 11.6813 14.3498C10.5578 15.0055 9.33076 15.3333 8.00033 15.3333C6.66989 15.3333 5.44289 15.0055 4.31934 14.3498C3.19578 13.6941 2.30617 12.8045 1.6505 11.6809C0.994828 10.5574 0.666992 9.3304 0.666992 7.99996C0.666992 6.66952 0.994828 5.44252 1.6505 4.31897C2.30617 3.19542 3.19578 2.3058 4.31934 1.65013C5.44289 0.994462 6.66989 0.666626 8.00033 0.666626Z" fill="#328CFF"/>
<path fill-rule="evenodd" clip-rule="evenodd" d="M7.8335 0.333313C9.19417 0.333313 10.4491 0.668599 11.5981 1.33917C12.7472 2.00975 13.6571 2.91958 14.3276 4.06866C14.9982 5.21775 15.3335 6.47264 15.3335 7.83331C15.3335 9.19399 14.9982 10.4489 14.3276 11.598C13.6571 12.7471 12.7472 13.6569 11.5981 14.3275C10.4491 14.998 9.19417 15.3333 7.8335 15.3333C6.47282 15.3333 5.21794 14.998 4.06885 14.3275C2.91976 13.6569 2.00993 12.7471 1.33936 11.598C0.668783 10.4489 0.333496 9.19399 0.333496 7.83331C0.333496 6.47264 0.668783 5.21775 1.33936 4.06866C2.00993 2.91958 2.91976 2.00975 4.06885 1.33917C5.21794 0.668599 6.47282 0.333313 7.8335 0.333313ZM10.5093 5.42125C10.4963 5.42776 10.4653 5.45869 10.4165 5.51402C10.3704 5.56631 10.3286 5.59681 10.2912 5.6055C10.3025 5.60106 10.315 5.58521 10.3286 5.55797C10.3449 5.52542 10.3612 5.48961 10.3774 5.45055C10.3937 5.41149 10.4051 5.3887 10.4116 5.38219C10.4507 5.33662 10.5223 5.28779 10.6265 5.2357C10.7176 5.19664 10.8869 5.15758 11.1343 5.11852C11.3556 5.06643 11.5216 5.10224 11.6323 5.22594C11.6193 5.21292 11.6502 5.1706 11.7251 5.09899C11.8 5.02737 11.8472 4.98831 11.8667 4.9818C11.8862 4.96878 11.9351 4.95413 12.0132 4.93785C12.0913 4.92158 12.1401 4.89716 12.1597 4.86461L12.1792 4.64977C12.1011 4.65628 12.0441 4.63349 12.0083 4.58141C11.9725 4.52932 11.9513 4.46096 11.9448 4.37633C11.9448 4.38935 11.9253 4.41539 11.8862 4.45445C11.8862 4.40888 11.8716 4.38284 11.8423 4.37633C11.813 4.36982 11.7756 4.37307 11.73 4.38609C11.6844 4.39912 11.6551 4.40237 11.6421 4.39586C11.577 4.37633 11.5282 4.35191 11.4956 4.32262C11.4631 4.29332 11.437 4.23961 11.4175 4.16149C11.3979 4.08336 11.3849 4.03453 11.3784 4.015C11.3654 3.98245 11.3345 3.94664 11.2856 3.90758C11.2368 3.86852 11.2059 3.83596 11.1929 3.80992C11.1864 3.7969 11.1782 3.779 11.1685 3.75621C11.1587 3.73343 11.1489 3.71227 11.1392 3.69274C11.1294 3.6732 11.1164 3.6553 11.1001 3.63902C11.0838 3.62275 11.0659 3.61461 11.0464 3.61461C11.0269 3.61461 11.0041 3.63089 10.978 3.66344C10.952 3.69599 10.9276 3.72854 10.9048 3.76109C10.882 3.79365 10.8674 3.80992 10.8608 3.80992C10.8413 3.7969 10.8218 3.79202 10.8022 3.79527C10.7827 3.79853 10.7681 3.80178 10.7583 3.80504C10.7485 3.8083 10.7339 3.81806 10.7144 3.83434C10.6948 3.85061 10.6785 3.86201 10.6655 3.86852C10.646 3.88154 10.6183 3.8913 10.5825 3.89781C10.5467 3.90432 10.519 3.91083 10.4995 3.91734C10.5972 3.88479 10.5939 3.84899 10.4897 3.80992C10.4246 3.78388 10.3726 3.77412 10.3335 3.78063C10.3921 3.75458 10.4165 3.71552 10.4067 3.66344C10.397 3.61135 10.3693 3.56578 10.3237 3.52672H10.3726C10.366 3.50068 10.3384 3.47301 10.2896 3.44371C10.2407 3.41441 10.1838 3.38675 10.1187 3.3607C10.0535 3.33466 10.0112 3.31513 9.9917 3.30211C9.93962 3.26956 9.82894 3.23863 9.65967 3.20934C9.4904 3.18004 9.38298 3.17841 9.3374 3.20445C9.30485 3.24352 9.2902 3.2777 9.29346 3.30699C9.29671 3.33629 9.30973 3.38186 9.33252 3.44371C9.35531 3.50556 9.3667 3.54625 9.3667 3.56578C9.37321 3.60484 9.35531 3.64716 9.31299 3.69274C9.27067 3.73831 9.24951 3.77737 9.24951 3.80992C9.24951 3.8555 9.29508 3.90595 9.38623 3.96129C9.47738 4.01663 9.50993 4.08662 9.48389 4.17125C9.46436 4.22333 9.41227 4.27542 9.32764 4.3275C9.243 4.37958 9.19092 4.41865 9.17139 4.44469C9.13883 4.49677 9.13395 4.55699 9.15674 4.62535C9.17953 4.69371 9.21371 4.74742 9.25928 4.78649C9.2723 4.79951 9.27718 4.81253 9.27393 4.82555C9.27067 4.83857 9.25928 4.85322 9.23975 4.86949C9.22021 4.88577 9.20231 4.89879 9.18604 4.90856C9.16976 4.91832 9.1486 4.92971 9.12256 4.94274L9.09326 4.96227C9.02165 4.99482 8.95492 4.97529 8.89307 4.90367C8.83122 4.83206 8.78727 4.74742 8.76123 4.64977C8.71566 4.48701 8.66357 4.38935 8.60498 4.3568C8.45524 4.30471 8.36084 4.30797 8.32178 4.36656C8.28923 4.28193 8.15576 4.19729 7.92139 4.11266C7.75863 4.05406 7.56982 4.04104 7.35498 4.07359C7.39404 4.06708 7.39404 4.01826 7.35498 3.92711C7.30941 3.82945 7.24756 3.79039 7.16943 3.80992C7.18896 3.77086 7.20199 3.71389 7.2085 3.63902C7.21501 3.56415 7.21826 3.52021 7.21826 3.50719C7.23779 3.42255 7.27686 3.34768 7.33545 3.28258C7.34196 3.27607 7.36475 3.2484 7.40381 3.19957C7.44287 3.15074 7.4738 3.1068 7.49658 3.06773C7.51937 3.02867 7.521 3.00914 7.50146 3.00914C7.72933 3.03518 7.89209 2.99938 7.98975 2.90172C8.0223 2.86917 8.05973 2.81383 8.10205 2.7357C8.14437 2.65758 8.17855 2.60224 8.20459 2.56969C8.26318 2.53063 8.30876 2.51272 8.34131 2.51598C8.37386 2.51923 8.42106 2.53714 8.48291 2.56969C8.54476 2.60224 8.59196 2.61852 8.62451 2.61852C8.71566 2.62503 8.76611 2.58922 8.77588 2.51109C8.78564 2.43297 8.76123 2.36787 8.70264 2.31578C8.78076 2.32229 8.79053 2.26695 8.73193 2.14977C8.70589 2.10419 8.67985 2.0749 8.65381 2.06188C8.57568 2.03583 8.48779 2.05211 8.39014 2.1107C8.33857 2.13649 8.34444 2.16227 8.40774 2.18805C8.39826 2.18781 8.36798 2.22225 8.31689 2.29137C8.26156 2.36624 8.20785 2.4232 8.15576 2.46227C8.10368 2.50133 8.0516 2.48505 7.99951 2.41344C7.993 2.40693 7.9751 2.36298 7.9458 2.2816C7.9165 2.20022 7.88558 2.15628 7.85303 2.14977C7.80094 2.14977 7.74886 2.19859 7.69678 2.29625C7.71631 2.24417 7.6805 2.19534 7.58936 2.14977C7.49821 2.10419 7.42008 2.07815 7.35498 2.07164C7.47868 1.99352 7.45264 1.90563 7.27686 1.80797C7.23128 1.78193 7.16455 1.76565 7.07666 1.75914C6.98877 1.75263 6.92529 1.76565 6.88623 1.7982C6.85368 1.84378 6.83577 1.88121 6.83252 1.91051C6.82926 1.93981 6.84554 1.96585 6.88135 1.98863C6.91716 2.01142 6.95133 2.02932 6.98389 2.04234C7.01644 2.05537 7.05387 2.06839 7.09619 2.08141C7.13851 2.09443 7.16618 2.10419 7.1792 2.1107C7.27035 2.17581 7.29639 2.22138 7.25732 2.24742C7.2443 2.25393 7.21663 2.26533 7.17432 2.2816C7.132 2.29788 7.09456 2.31253 7.06201 2.32555C7.02946 2.33857 7.00993 2.35159 7.00342 2.36461C6.98389 2.39065 6.98389 2.43622 7.00342 2.50133C7.02295 2.56643 7.01644 2.61201 6.98389 2.63805C6.95133 2.6055 6.92204 2.54853 6.896 2.46715C6.86995 2.38577 6.84717 2.33206 6.82764 2.30602C6.87321 2.36461 6.79183 2.38414 6.5835 2.36461L6.48584 2.35484C6.4598 2.35484 6.40771 2.36135 6.32959 2.37438C6.25146 2.3874 6.18473 2.39065 6.12939 2.38414C6.07406 2.37763 6.03011 2.35159 5.99756 2.30602C5.97152 2.25393 5.97152 2.18883 5.99756 2.1107C6.00407 2.08466 6.01709 2.07815 6.03662 2.09117C6.01058 2.07164 5.97477 2.04072 5.9292 1.9984C5.88363 1.95608 5.85107 1.92841 5.83154 1.91539C5.53206 2.01305 5.22607 2.14651 4.91357 2.31578C4.95264 2.32229 4.9917 2.31904 5.03076 2.30602C5.06331 2.293 5.10563 2.27184 5.15771 2.24254C5.2098 2.21324 5.24235 2.19534 5.25537 2.18883C5.47673 2.09768 5.61344 2.0749 5.66553 2.12047L5.71436 2.07164C5.8055 2.17581 5.87061 2.25719 5.90967 2.31578C5.8641 2.28974 5.76644 2.28648 5.6167 2.30602C5.48649 2.34508 5.41488 2.38414 5.40186 2.4232C5.44743 2.50133 5.4637 2.55992 5.45068 2.59898C5.42464 2.57945 5.38721 2.5469 5.33838 2.50133C5.28955 2.45576 5.24235 2.41995 5.19678 2.39391C5.1512 2.36787 5.10238 2.35159 5.05029 2.34508C4.94613 2.34508 4.87451 2.34833 4.83545 2.35484C3.88493 2.87568 3.11995 3.59833 2.54053 4.52281C2.5861 4.56839 2.62516 4.59443 2.65771 4.60094C2.68376 4.60745 2.70003 4.63675 2.70654 4.68883C2.71305 4.74091 2.72119 4.77672 2.73096 4.79625C2.74072 4.81578 2.77816 4.80602 2.84326 4.76695C2.90186 4.81904 2.91162 4.88089 2.87256 4.9525C2.87907 4.94599 3.0223 5.03388 3.30225 5.21617C3.42594 5.32685 3.4943 5.39521 3.50732 5.42125C3.52686 5.49287 3.4943 5.55146 3.40967 5.59703C3.40316 5.58401 3.37386 5.55471 3.32178 5.50914C3.26969 5.46357 3.2404 5.45055 3.23389 5.47008C3.21436 5.50263 3.21598 5.56285 3.23877 5.65074C3.26007 5.7329 3.29132 5.77381 3.33253 5.77348C3.29174 5.77987 3.26374 5.83173 3.24854 5.92906C3.23226 6.03323 3.22412 6.14879 3.22412 6.27574C3.22412 6.4027 3.22087 6.47919 3.21436 6.50524L3.23389 6.515C3.21436 6.59313 3.23226 6.70543 3.2876 6.85191C3.34294 6.9984 3.41292 7.06188 3.49756 7.04234C3.41292 7.06188 3.47803 7.20185 3.69287 7.46227C3.73193 7.51435 3.75798 7.54365 3.771 7.55016C3.79053 7.56318 3.82959 7.58759 3.88818 7.6234C3.94678 7.65921 3.99561 7.69176 4.03467 7.72106C4.07373 7.75035 4.10628 7.78453 4.13232 7.82359C4.15837 7.85615 4.19092 7.92939 4.22998 8.04332C4.26904 8.15725 4.31462 8.23375 4.3667 8.27281C4.35368 8.31188 4.3846 8.37698 4.45947 8.46813C4.53434 8.55927 4.56852 8.63414 4.56201 8.69274C4.5555 8.69274 4.54736 8.69599 4.5376 8.7025C4.52783 8.70901 4.51969 8.71227 4.51318 8.71227C4.53271 8.75784 4.58317 8.80341 4.66455 8.84899C4.74593 8.89456 4.79639 8.93688 4.81592 8.97594C4.82243 8.99547 4.82894 9.02802 4.83545 9.0736C4.84196 9.11917 4.85173 9.15497 4.86475 9.18102C4.87777 9.20706 4.90381 9.21357 4.94287 9.20055C4.95589 9.07034 4.87777 8.86852 4.7085 8.59508C4.61084 8.43232 4.5555 8.33792 4.54248 8.31188C4.52295 8.27932 4.50505 8.22887 4.48877 8.16051C4.47249 8.09215 4.45785 8.04495 4.44482 8.01891C4.45785 8.01891 4.47738 8.02379 4.50342 8.03356C4.52946 8.04332 4.55713 8.05471 4.58643 8.06774C4.61572 8.08076 4.64014 8.09378 4.65967 8.1068C4.6792 8.11982 4.68571 8.12958 4.6792 8.13609C4.65967 8.18167 4.66618 8.23863 4.69873 8.30699C4.73128 8.37535 4.77035 8.43557 4.81592 8.48766C4.86149 8.53974 4.91683 8.60159 4.98193 8.6732C5.04704 8.74482 5.0861 8.78714 5.09912 8.80016C5.13818 8.83922 5.18376 8.9027 5.23584 8.99059C5.28792 9.07848 5.28792 9.12242 5.23584 9.12242C5.29443 9.12242 5.35954 9.1566 5.43115 9.22496C5.50277 9.29332 5.55811 9.3568 5.59717 9.41539C5.62972 9.46747 5.65576 9.55211 5.67529 9.6693C5.69482 9.78649 5.7111 9.86461 5.72412 9.90367C5.73714 9.94925 5.76481 9.99319 5.80713 10.0355C5.84945 10.0778 5.89014 10.1088 5.9292 10.1283L6.08545 10.2064L6.2124 10.2748C6.24495 10.2878 6.30518 10.322 6.39307 10.3773C6.48096 10.4326 6.55094 10.4701 6.60303 10.4896C6.66813 10.5157 6.72021 10.5287 6.75928 10.5287C6.79834 10.5287 6.84554 10.5205 6.90088 10.5043C6.95622 10.488 7.00016 10.4766 7.03271 10.4701C7.13037 10.4571 7.22477 10.5059 7.31592 10.6166C7.40706 10.7272 7.47542 10.7956 7.521 10.8216C7.75537 10.9453 7.93441 10.9811 8.05811 10.9291C8.04508 10.9356 8.04671 10.96 8.06299 11.0023C8.07926 11.0446 8.10531 11.0951 8.14111 11.1537C8.17692 11.2123 8.20622 11.2595 8.229 11.2953C8.25179 11.3311 8.26969 11.3588 8.28271 11.3783C8.31527 11.4173 8.37386 11.4662 8.4585 11.5248C8.54313 11.5834 8.60173 11.6322 8.63428 11.6713C8.66689 11.6495 8.68815 11.6255 8.69808 11.5992C8.68804 11.6485 8.71235 11.7083 8.771 11.7787C8.8361 11.8568 8.89469 11.8893 8.94678 11.8763C9.03792 11.8568 9.0835 11.7526 9.0835 11.5638C8.88167 11.6615 8.72217 11.6029 8.60498 11.388C8.60498 11.3815 8.59684 11.3636 8.58057 11.3343C8.56429 11.305 8.55127 11.2774 8.5415 11.2513C8.53174 11.2253 8.5236 11.1976 8.51709 11.1683C8.51058 11.139 8.51058 11.1146 8.51709 11.0951C8.5236 11.0755 8.53988 11.0658 8.56592 11.0658C8.62451 11.0658 8.65706 11.0544 8.66357 11.0316C8.67008 11.0088 8.66357 10.9681 8.64404 10.9095C8.62451 10.8509 8.61149 10.8086 8.60498 10.7826C8.59847 10.7305 8.56266 10.6654 8.49756 10.5873C8.43246 10.5091 8.39339 10.4603 8.38037 10.4408C8.34782 10.4994 8.29574 10.5254 8.22412 10.5189C8.15251 10.5124 8.10042 10.4831 8.06787 10.431C8.06787 10.4375 8.06299 10.4554 8.05322 10.4847C8.04346 10.514 8.03857 10.5352 8.03857 10.5482C7.95394 10.5482 7.90511 10.5449 7.89209 10.5384C7.8986 10.5189 7.90674 10.4619 7.9165 10.3675C7.92627 10.2731 7.93766 10.1999 7.95068 10.1478C7.95719 10.1218 7.9751 10.0827 8.00439 10.0306C8.03369 9.97854 8.05811 9.93134 8.07764 9.88902C8.09717 9.84671 8.11019 9.80602 8.1167 9.76695C8.12321 9.72789 8.10856 9.69697 8.07275 9.67418C8.03695 9.65139 7.97998 9.64326 7.90186 9.64977C7.77816 9.65628 7.69352 9.72138 7.64795 9.84508C7.64144 9.86461 7.63167 9.89879 7.61865 9.94762C7.60563 9.99645 7.58936 10.0339 7.56982 10.0599C7.55029 10.086 7.521 10.1088 7.48193 10.1283C7.43636 10.1478 7.35824 10.1543 7.24756 10.1478C7.13688 10.1413 7.05876 10.125 7.01318 10.099C6.92855 10.0469 6.85531 9.9525 6.79346 9.81578C6.73161 9.67906 6.70068 9.55862 6.70068 9.45445C6.70068 9.38935 6.70882 9.30309 6.7251 9.19567C6.74137 9.08824 6.75114 9.00686 6.75439 8.95152C6.75765 8.89619 6.73975 8.81643 6.70068 8.71227C6.72021 8.69925 6.74951 8.66832 6.78857 8.61949C6.82764 8.57067 6.86019 8.53649 6.88623 8.51695C6.89925 8.51044 6.9139 8.50556 6.93018 8.50231C6.94645 8.49905 6.9611 8.49905 6.97412 8.50231C6.98714 8.50556 7.00016 8.50068 7.01318 8.48766C7.0262 8.47464 7.03597 8.4551 7.04248 8.42906C7.03597 8.42255 7.02295 8.41279 7.00342 8.39977C6.99037 8.38672 6.98022 8.37803 6.97299 8.3737C7.02113 8.38933 7.11103 8.38338 7.24268 8.35582C7.38265 8.32652 7.47217 8.33141 7.51123 8.37047C7.60889 8.44208 7.6805 8.43557 7.72607 8.35094C7.72607 8.34443 7.71794 8.3135 7.70166 8.25816C7.68538 8.20283 7.68376 8.15888 7.69678 8.12633C7.72933 8.30211 7.82373 8.33141 7.97998 8.21422C7.99951 8.23375 8.04997 8.25003 8.13135 8.26305C8.21273 8.27607 8.26969 8.29234 8.30225 8.31188C8.32178 8.3249 8.34456 8.3428 8.37061 8.36559C8.39665 8.38837 8.41455 8.40302 8.42432 8.40953C8.43408 8.41604 8.45036 8.41442 8.47314 8.40465C8.49593 8.39488 8.5236 8.37372 8.55615 8.34117C8.62126 8.43232 8.66032 8.51044 8.67334 8.57555C8.74496 8.83596 8.8068 8.97919 8.85889 9.00524C8.90446 9.02477 8.94027 9.03128 8.96631 9.02477C8.99235 9.01826 9.007 8.98733 9.01025 8.93199C9.01351 8.87665 9.01351 8.83108 9.01025 8.79527C9.007 8.75947 9.00212 8.71878 8.99561 8.6732L8.98584 8.59508V8.4193L8.97607 8.34117C8.87842 8.32164 8.8182 8.28258 8.79541 8.22399C8.77262 8.16539 8.77751 8.10517 8.81006 8.04332C8.84261 7.98147 8.89144 7.92125 8.95654 7.86266C8.96305 7.85615 8.9891 7.84475 9.03467 7.82848C9.08024 7.8122 9.1307 7.79104 9.18604 7.765C9.24137 7.73896 9.28206 7.71292 9.30811 7.68688C9.44482 7.56318 9.49365 7.44925 9.45459 7.34508C9.50016 7.34508 9.53597 7.31578 9.56201 7.25719C9.5555 7.25719 9.53923 7.24742 9.51318 7.22789C9.48714 7.20836 9.46273 7.19208 9.43994 7.17906C9.41716 7.16604 9.40251 7.15953 9.396 7.15953C9.45459 7.12698 9.4611 7.0749 9.41553 7.00328C9.44808 6.98375 9.47249 6.94794 9.48877 6.89586C9.50505 6.84378 9.52946 6.81122 9.56201 6.7982C9.62061 6.87633 9.68896 6.88284 9.76709 6.81774C9.81917 6.76565 9.82243 6.71357 9.77686 6.66149C9.80941 6.61591 9.87614 6.58173 9.97705 6.55895C10.078 6.53616 10.1382 6.50524 10.1577 6.46617C10.2033 6.47919 10.2293 6.47268 10.2358 6.44664C10.2424 6.4206 10.2456 6.38154 10.2456 6.32945C10.2456 6.27737 10.2554 6.23831 10.2749 6.21227C10.3009 6.17971 10.3498 6.15042 10.4214 6.12438C10.493 6.09833 10.5353 6.08206 10.5483 6.07555L10.7144 5.96813C10.7313 5.94558 10.7335 5.93279 10.7212 5.92977C10.8355 5.94068 10.9341 5.90463 11.0171 5.82164C11.0822 5.75003 11.0627 5.68492 10.9585 5.62633C10.978 5.58727 10.9683 5.55634 10.9292 5.53356C10.8901 5.51077 10.8413 5.49287 10.7827 5.47984C10.8022 5.47333 10.8397 5.47171 10.895 5.47496C10.9504 5.47822 10.9845 5.47333 10.9976 5.46031C11.0952 5.39521 11.0724 5.34313 10.9292 5.30406C10.8185 5.27151 10.6785 5.31057 10.5093 5.42125ZM8.40967 2.18883C8.40902 2.18857 8.40837 2.18831 8.40774 2.18805ZM12.3452 12.1401C11.4012 13.1362 10.2586 13.7514 8.91745 13.9858C8.90442 13.9207 8.89791 13.8686 8.89791 13.8295C8.8914 13.7775 8.91419 13.7075 8.96627 13.6196C9.01836 13.5317 9.0444 13.465 9.0444 13.4194C8.94023 13.3933 8.90117 13.3087 8.92721 13.1655C8.94023 13.0678 9.03463 12.9376 9.21041 12.7748C9.33411 12.6642 9.37317 12.5079 9.3276 12.3061C9.30807 12.2215 9.29179 12.0978 9.27877 11.935C9.26621 11.778 9.25365 11.6664 9.24109 11.6003C9.2477 11.6171 9.27817 11.6326 9.33249 11.6469C9.39433 11.6632 9.43177 11.6844 9.44479 11.7104C9.45781 11.6909 9.47409 11.6551 9.49362 11.603C9.51315 11.5509 9.53268 11.5118 9.55221 11.4858C9.56523 11.4663 9.5929 11.4418 9.63522 11.4125C9.67754 11.3832 9.70521 11.3653 9.71823 11.3588C9.73125 11.3523 9.76054 11.3312 9.80612 11.2954C9.85169 11.2595 9.88913 11.2319 9.91842 11.2123C9.94772 11.1928 9.98678 11.1782 10.0356 11.1684C10.0844 11.1586 10.1186 11.1733 10.1381 11.2123C10.1707 11.2514 10.1642 11.3116 10.1186 11.393C10.073 11.4744 10.073 11.5314 10.1186 11.5639C10.1251 11.5444 10.1316 11.5021 10.1381 11.437C10.1447 11.3719 10.1642 11.323 10.1967 11.2905C10.2358 11.2514 10.2732 11.2286 10.309 11.2221C10.3449 11.2156 10.3774 11.2205 10.4067 11.2368C10.436 11.253 10.4702 11.2758 10.5092 11.3051C10.5483 11.3344 10.5841 11.3523 10.6167 11.3588C10.7143 11.3914 10.8315 11.463 10.9682 11.5737C10.9617 11.5672 10.9617 11.559 10.9682 11.5493C10.9747 11.5395 10.9878 11.5297 11.0073 11.52C11.0268 11.5102 11.0447 11.5004 11.061 11.4907C11.0773 11.4809 11.0952 11.4728 11.1147 11.4663L11.144 11.4565C11.1896 11.4565 11.2221 11.4532 11.2417 11.4467C11.2612 11.4402 11.2889 11.4467 11.3247 11.4663C11.3605 11.4858 11.3849 11.5004 11.3979 11.5102C11.4109 11.52 11.4337 11.5379 11.4663 11.5639C11.4988 11.59 11.5216 11.6095 11.5346 11.6225C11.5542 11.6355 11.59 11.6583 11.6421 11.6909C11.6941 11.7234 11.7348 11.7495 11.7641 11.769C11.7934 11.7885 11.8195 11.8178 11.8422 11.8569C11.865 11.8959 11.8732 11.9383 11.8667 11.9838C11.9057 11.9903 11.9839 12.0164 12.101 12.062C12.1206 12.075 12.1613 12.0864 12.2231 12.0961C12.285 12.1059 12.3256 12.1206 12.3452 12.1401ZM9.23971 11.5932C9.24017 11.5955 9.24063 11.5979 9.24109 11.6003C9.24017 11.5979 9.23971 11.5956 9.23971 11.5932Z" fill="white"/>
</svg>
