<svg width="11" height="17" viewBox="0 0 11 17" fill="none" xmlns="http://www.w3.org/2000/svg">
<path opacity="0.9" fill-rule="evenodd" clip-rule="evenodd" d="M0 0L3.67548 6.32812C3.97161 6.24375 4.28516 6.17625 4.61613 6.1425L1.06258 0H0ZM3.3271 0L6.96774 6.29437C6.60194 6.19312 6.21871 6.12563 5.81806 6.09188L2.28194 0H3.3271ZM5.4 7.10437C2.82194 7.10437 0.714194 9.14625 0.714194 11.6437C0.714194 14.1412 2.82194 16.1831 5.4 16.1831C7.97806 16.1831 10.0858 14.1412 10.0858 11.6437C10.0858 9.12937 7.97806 7.10437 5.4 7.10437ZM5.4 15.1369C3.41419 15.1369 1.79419 13.5675 1.79419 11.6438C1.79419 9.72 3.41419 8.13375 5.4 8.13375C7.38581 8.13375 9.00581 9.70312 9.00581 11.6269C9.00581 13.5506 7.38581 15.1369 5.4 15.1369ZM6.70645 12.0319L7.80387 11.1544C7.99548 10.9856 7.89097 10.665 7.6471 10.6481L6.23613 10.5469L5.69613 9.28125C5.64387 9.16313 5.53935 9.09562 5.41742 9.09562C5.29548 9.09562 5.19097 9.16313 5.13871 9.28125L4.59871 10.5469L3.18774 10.6481C2.92645 10.665 2.80452 10.9856 3.01355 11.1544L4.11097 12.0319L3.78 13.3481C3.72774 13.5337 3.88452 13.7025 4.05871 13.7025C4.11097 13.7025 4.16323 13.6856 4.21548 13.6519L5.4 12.9262L6.60194 13.6519C6.65419 13.6856 6.70645 13.7025 6.75871 13.7025C6.9329 13.7025 7.08968 13.5506 7.03742 13.3481L6.70645 12.0319ZM9.73742 0H10.8L7.71677 5.3325L7.17677 4.40438L9.73742 0ZM6.5671 3.35812L8.51806 0H7.4729L6.04452 2.46375L6.5671 3.35812Z" fill="white"/>
</svg>
