<svg width="50" height="33" viewBox="0 0 50 33" fill="none" xmlns="http://www.w3.org/2000/svg">
<path fill-rule="evenodd" clip-rule="evenodd" d="M1.39842 2.52539C0.905151 3.49349 0.905151 4.7608 0.905151 7.29543V16.2744C0.905151 18.809 0.905151 20.0763 1.39842 21.0444C1.83232 21.896 2.52466 22.5883 3.37622 23.0222C4.34432 23.5155 5.61163 23.5155 8.14626 23.5155H34.1514C34.5585 23.52 47.7294 23.7314 49.7826 32.0969V23.5155H49.7826V0.0543213H8.14626C5.61163 0.0543213 4.34432 0.0543213 3.37622 0.547592C2.52466 0.981485 1.83232 1.67383 1.39842 2.52539Z" fill="#3C6097"/>
<path d="M36.0969 13.968L39.1175 15.6952L38.3159 12.4399L40.9846 10.2497L37.4703 9.96724L36.0969 6.89722L34.7234 9.96724L31.2091 10.2497L33.8778 12.4399L33.0762 15.6952L36.0969 13.968Z" fill="white"/>
<path d="M16.7108 14.3575H15.7774V15.9645H14.1757V14.3575H10.8663V13.2172L14.2659 8.2107H15.7774V13.0847H16.7108V14.3575ZM14.1757 13.0847V11.7694C14.1757 11.5502 14.1845 11.2319 14.2022 10.8147C14.2199 10.3975 14.234 10.1553 14.2446 10.0882H14.2022C14.0714 10.3781 13.9141 10.6609 13.7302 10.9367L12.3089 13.0847H14.1757ZM17.5063 15.2061C17.5063 14.9091 17.5859 14.6846 17.745 14.5325C17.9041 14.3805 18.1357 14.3045 18.4397 14.3045C18.7332 14.3045 18.9595 14.3823 19.1186 14.5378C19.2812 14.6934 19.3626 14.9161 19.3626 15.2061C19.3626 15.4854 19.2812 15.7064 19.1186 15.869C18.956 16.0281 18.7297 16.1077 18.4397 16.1077C18.1428 16.1077 17.9129 16.0299 17.7503 15.8743C17.5876 15.7152 17.5063 15.4925 17.5063 15.2061ZM25.8064 11.5201C25.8064 13.0475 25.4846 14.1878 24.8411 14.9409C24.1976 15.694 23.2235 16.0705 21.9189 16.0705C21.4592 16.0705 21.111 16.0458 20.8741 15.9963V14.681C21.1711 14.7553 21.4822 14.7924 21.8075 14.7924C22.3555 14.7924 22.8063 14.7128 23.1599 14.5537C23.5135 14.3911 23.784 14.1383 23.9713 13.7953C24.1587 13.4488 24.2666 12.9733 24.2949 12.3687H24.2312C24.0261 12.701 23.7893 12.9344 23.5205 13.0687C23.2518 13.2031 22.9159 13.2703 22.5129 13.2703C21.8376 13.2703 21.3054 13.0546 20.9165 12.6232C20.5276 12.1884 20.3331 11.5855 20.3331 10.8147C20.3331 9.98385 20.5682 9.32798 21.0385 8.84712C21.5123 8.36273 22.1558 8.12054 22.969 8.12054C23.5418 8.12054 24.0421 8.25489 24.4699 8.5236C24.9012 8.79232 25.2318 9.18301 25.4616 9.69569C25.6915 10.2048 25.8064 10.813 25.8064 11.5201ZM23.0008 9.43581C22.6614 9.43581 22.3962 9.55249 22.2053 9.78585C22.0143 10.0192 21.9189 10.3551 21.9189 10.7935C21.9189 11.1683 22.0055 11.4653 22.1787 11.6845C22.352 11.9037 22.6154 12.0133 22.969 12.0133C23.3013 12.0133 23.586 11.9055 23.8228 11.6898C24.0597 11.4706 24.1782 11.2196 24.1782 10.9367C24.1782 10.516 24.0668 10.1606 23.8441 9.8707C23.6248 9.58078 23.3438 9.43581 23.0008 9.43581Z" fill="white"/>
</svg>
